<svg width="64" height="64" viewBox="0 0 64 64" fill="none" xmlns="http://www.w3.org/2000/svg">
  <defs>
    <linearGradient id="pp" x1="0" y1="0" x2="64" y2="64" gradientUnits="userSpaceOnUse">
      <stop stop-color="#2563EB"/>
      <stop offset="1" stop-color="#7C3AED"/>
    </linearGradient>
  </defs>
  <rect width="64" height="64" rx="14" fill="url(#pp)"/>
  <path d="M32 14c1.6 6.8 4.4 9.6 11.2 11.2C36.4 26.8 33.6 29.6 32 36.4c-1.6-6.8-4.4-9.6-11.2-11.2C27.6 23.6 30.4 20.8 32 14Z" fill="#fff"/>
  <path d="M44 36c.9 3.8 2.4 5.3 6.2 6.2C46.4 43.1 44.9 44.6 44 48.4c-.9-3.8-2.4-5.3-6.2-6.2C41.6 41.3 43.1 39.8 44 36Z" fill="#fff" fill-opacity="0.85"/>
</svg>
